# xmcd
#
# Track frame offsets: 
#        150
#        21468
#        38067
#        52137
#        71374
#        91524
#        121762
#        145645
#        166464
#        189788
#        208544
#        230897
#
# Disc length: 3357 seconds
#
# Revision: 1
# Processed by: cddbd v1.5.2PL0 Copyright (c) Steve Scherf et al.
# Submitted via: ExactAudioCopyFreeDBPlugin 1.0
#
DISCID=9c0d1b0c
DTITLE=Vaneese Thomas - The Long Journey Home
DYEAR=2016
DGENRE=Blues
TTITLE0=Sweet Talk me
TTITLE1=Lonely no More
TTITLE2=Sat'day Night on The River
TTITLE3=Mystified
TTITLE4=Country Funk
TTITLE5=The More Things Change
TTITLE6=Prince of Fools
TTITLE7=I Got a Man in tn
TTITLE8=Rockin' Away The Blues
TTITLE9=Revelation
TTITLE10=Mean World
TTITLE11=The Chain
EXTD=
EXTT0=
EXTT1=
EXTT2=
EXTT3=
EXTT4=
EXTT5=
EXTT6=
EXTT7=
EXTT8=
EXTT9=
EXTT10=
EXTT11=
PLAYORDER=
